<svg width="77" height="77" viewBox="0 0 77 77" fill="none" xmlns="http://www.w3.org/2000/svg">
<g opacity="0.5">
<path fill-rule="evenodd" clip-rule="evenodd" d="M33.4649 24.8361C34.431 24.4523 35.5307 24.1876 36.7507 24.0649C37.0815 24.0324 37.3222 23.7377 37.2897 23.4068C37.256 23.0771 36.9612 22.8353 36.6316 22.8678C35.2901 23.0025 34.0821 23.2961 33.021 23.7184C32.7118 23.8399 32.5614 24.19 32.6841 24.4992C32.8068 24.8072 33.1569 24.9588 33.4649 24.8361Z" fill="#738BAB"/>
<path fill-rule="evenodd" clip-rule="evenodd" d="M39.6982 24.0421C41.1203 24.1491 42.4221 24.172 43.6108 24.1215C43.9429 24.1082 44.2015 23.8279 44.1871 23.4958C44.1739 23.1638 43.8923 22.9063 43.5615 22.9195C42.4149 22.9677 41.16 22.9448 39.7885 22.8413C39.4576 22.8173 39.1689 23.0651 39.1436 23.396C39.1183 23.728 39.3674 24.0168 39.6982 24.0421Z" fill="#738BAB"/>
<path fill-rule="evenodd" clip-rule="evenodd" d="M46.8593 23.7653C48.2622 23.5019 49.452 23.1121 50.4518 22.632C50.7514 22.4876 50.8777 22.1279 50.7334 21.8295C50.5902 21.5299 50.2305 21.4036 49.9309 21.5468C49.0141 21.9871 47.9229 22.342 46.6367 22.5839C46.3107 22.6452 46.0953 22.9593 46.1567 23.2865C46.218 23.6125 46.5333 23.8267 46.8593 23.7653Z" fill="#738BAB"/>
<path fill-rule="evenodd" clip-rule="evenodd" d="M52.9038 20.9608C53.9818 19.9201 54.6147 18.7218 54.8998 17.503C54.9756 17.1794 54.7735 16.8558 54.451 16.78C54.1274 16.7042 53.8038 16.9063 53.728 17.2287C53.4922 18.2406 52.9628 19.2319 52.0689 20.0946C51.8294 20.3256 51.8222 20.707 52.0532 20.9452C52.2842 21.1846 52.6644 21.1918 52.9038 20.9608Z" fill="#738BAB"/>
<path fill-rule="evenodd" clip-rule="evenodd" d="M54.6134 13.3607C54.1358 12.0926 53.3261 11.0158 52.3395 10.3349C52.0664 10.1472 51.6923 10.2157 51.5034 10.4889C51.3145 10.762 51.3831 11.1373 51.6574 11.3262C52.455 11.8761 53.1011 12.7567 53.4873 13.7842C53.604 14.0946 53.9505 14.2522 54.2621 14.1355C54.5725 14.0188 54.7302 13.6711 54.6134 13.3607Z" fill="#738BAB"/>
<path fill-rule="evenodd" clip-rule="evenodd" d="M38.9392 10.3324C39.5997 7.2332 42.2322 5.72568 44.1307 5.71486C44.7539 5.71125 45.2941 5.85803 45.5745 6.2334C45.7405 6.45598 45.791 6.75436 45.7272 7.12011C45.6707 7.44736 45.8909 7.75896 46.2181 7.81551C46.5454 7.87206 46.857 7.65189 46.9135 7.32464C47.0435 6.57268 46.8798 5.96992 46.5382 5.51393C46.0605 4.87267 45.1846 4.50571 44.1247 4.51173C41.8135 4.52496 38.5662 6.3092 37.7626 10.0822C37.6928 10.407 37.8997 10.7259 38.2246 10.7957C38.5494 10.8654 38.8694 10.6573 38.9392 10.3324Z" fill="#738BAB"/>
<path fill-rule="evenodd" clip-rule="evenodd" d="M37.7673 10.3349C38.5818 14.0886 41.817 15.8644 44.1222 15.8789C45.2639 15.8849 46.1891 15.4602 46.6415 14.7251C46.9146 14.2823 47.0337 13.718 46.9062 13.0287C46.7498 12.1805 46.1915 11.094 45.0233 9.80428C44.8007 9.55764 44.4193 9.53839 44.1739 9.76097C43.9273 9.98475 43.908 10.3649 44.1318 10.6116C44.9451 11.5103 45.4275 12.2767 45.6393 12.9204C45.7993 13.4112 45.7957 13.8047 45.6176 14.0946C45.4564 14.3557 45.1677 14.5133 44.82 14.5999C44.3832 14.7082 43.8599 14.6998 43.3076 14.5831C41.5427 14.2101 39.519 12.7339 38.9439 10.0798C38.8729 9.75495 38.5529 9.54922 38.228 9.619C37.9032 9.68998 37.6975 10.01 37.7673 10.3349Z" fill="#738BAB"/>
<path fill-rule="evenodd" clip-rule="evenodd" d="M38.1919 11.4105H46.2468C46.9109 11.4105 47.4499 10.8715 47.4499 10.2073C47.4499 9.54321 46.9109 9.00421 46.2468 9.00421H38.1919C37.5278 9.00421 36.9888 9.54321 36.9888 10.2073C36.9888 10.8715 37.5278 11.4105 38.1919 11.4105Z" fill="#2D74FF"/>
<path fill-rule="evenodd" clip-rule="evenodd" d="M13.8359 58.3756V65.124C13.8359 66.4522 14.707 67.6228 15.9799 68.0042C20.8141 69.4552 34.4118 73.535 37.6362 74.5011C38.1992 74.6708 38.8008 74.6708 39.3638 74.5011C42.5882 73.535 56.1859 69.4552 61.0201 68.0042C62.293 67.6228 63.1641 66.4522 63.1641 65.124C63.1641 61.9116 63.1641 55.5026 63.1641 55.5026C63.1641 55.1705 62.8946 54.901 62.5625 54.901C62.2304 54.901 61.9609 55.1705 61.9609 55.5026V65.124C61.9609 65.9204 61.4376 66.623 60.6748 66.8528C55.8406 68.3026 42.2417 72.3824 39.0185 73.3497C38.6805 73.4508 38.3195 73.4508 37.9815 73.3497L16.3252 66.8528C15.5624 66.623 15.0391 65.9204 15.0391 65.124V58.3756C15.0391 58.0436 14.7696 57.7741 14.4375 57.7741C14.1054 57.7741 13.8359 58.0436 13.8359 58.3756Z" fill="#738BAB"/>
<path fill-rule="evenodd" clip-rule="evenodd" d="M12.4355 44.7442C12.4355 44.7442 9.3892 49.2607 7.83236 51.5683C7.51594 52.0376 7.43773 52.6295 7.62301 53.1649C7.80709 53.7003 8.23179 54.119 8.77079 54.2934L30.421 61.3281C31.1862 61.5759 32.0224 61.2896 32.4736 60.6243C34.087 58.2421 38.9981 50.9969 38.9981 50.9969C39.104 50.8405 39.1305 50.6431 39.0691 50.4639C39.0077 50.2846 38.8658 50.145 38.6853 50.0873L14.6228 42.279C14.3076 42.1767 13.9683 42.35 13.8648 42.6664C13.7626 42.9816 13.9358 43.3209 14.2522 43.4244L37.5532 50.9848L31.4774 59.9493C31.327 60.1707 31.0479 60.2669 30.7928 60.1839L9.14256 53.1492C8.96329 53.0903 8.82133 52.9519 8.75997 52.7727C8.69861 52.5946 8.72508 52.3973 8.82975 52.2409L13.4329 45.4168C13.6194 45.1412 13.546 44.7671 13.2705 44.5818C12.9962 44.3953 12.622 44.4687 12.4355 44.7442Z" fill="#738BAB"/>
<path fill-rule="evenodd" clip-rule="evenodd" d="M58.9543 43.3895L38.3147 50.0873C37.9983 50.1895 37.8251 50.5288 37.9273 50.8453C38.0308 51.1605 38.3701 51.3337 38.6853 51.2315L59.3249 44.5349C59.6413 44.4326 59.8146 44.0921 59.7123 43.7769C59.6088 43.4605 59.2696 43.2872 58.9543 43.3895Z" fill="#738BAB"/>
<path fill-rule="evenodd" clip-rule="evenodd" d="M39.7055 53.5102C39.7055 53.5102 43.1957 58.6596 44.5264 60.6243C44.9776 61.2896 45.8137 61.576 46.5789 61.3281C50.1269 60.1755 63.6585 55.7781 68.2291 54.2934C68.7681 54.119 69.1928 53.7003 69.3769 53.1649C69.5622 52.6295 69.484 52.0376 69.1676 51.5684C67.2811 48.7711 63.0617 42.5148 63.0617 42.5148C62.8752 42.2405 62.5011 42.1671 62.2256 42.3524C61.9512 42.5389 61.8778 42.9131 62.0631 43.1886C62.0631 43.1886 66.2837 49.4436 68.1702 52.2409C68.2749 52.3973 68.3013 52.5946 68.24 52.7727C68.1786 52.952 68.0366 53.0903 67.8574 53.1493L46.2071 60.1839C45.9521 60.267 45.673 60.1707 45.5226 59.9493L40.7016 52.8353C40.5152 52.5597 40.141 52.4888 39.8655 52.6752C39.5912 52.8605 39.519 53.2359 39.7055 53.5102Z" fill="#738BAB"/>
<path fill-rule="evenodd" clip-rule="evenodd" d="M18.2779 42.2345L38.6866 35.5909C38.8658 35.5319 39.0078 35.3923 39.0691 35.2131C39.1305 35.0338 39.104 34.8365 38.997 34.6801C38.997 34.6801 34.6753 28.324 33.1726 26.1138C32.7215 25.4509 31.8865 25.1646 31.1225 25.4124L9.47107 32.4471C8.93207 32.6227 8.50736 33.0402 8.32208 33.5768C8.138 34.1122 8.21621 34.7029 8.53263 35.1734C10.2699 37.7493 13.9383 43.1886 13.9383 43.1886C14.1248 43.4629 14.4989 43.5363 14.7744 43.3498C15.0488 43.1645 15.1221 42.7904 14.9369 42.5148C14.9369 42.5148 11.2673 37.0767 9.53002 34.5008C9.42414 34.3432 9.39888 34.1471 9.46024 33.9678C9.5216 33.7898 9.66357 33.6502 9.84283 33.5913L31.4943 26.5566C31.7493 26.4736 32.0273 26.5698 32.1776 26.79L37.552 34.6945L17.9062 41.0903C17.5898 41.1926 17.4177 41.5331 17.52 41.8483C17.6234 42.1635 17.9627 42.3368 18.2779 42.2345Z" fill="#738BAB"/>
<path fill-rule="evenodd" clip-rule="evenodd" d="M38.3136 35.5909L62.3761 43.4232C62.6312 43.5062 62.9115 43.4112 63.0619 43.1886C63.0619 43.1886 66.7303 37.7493 68.4676 35.1734C68.784 34.7029 68.8622 34.1122 68.6781 33.5768C68.4928 33.0402 68.0681 32.6227 67.5291 32.4471L45.8777 25.4124C45.1137 25.1646 44.2787 25.4509 43.8276 26.1138L39.619 32.3027C39.4326 32.5782 39.5035 32.9524 39.7778 33.1389C40.0534 33.3254 40.4275 33.2544 40.614 32.9801L44.8226 26.79C44.9729 26.5698 45.2509 26.4736 45.5059 26.5566L67.1574 33.5913C67.3366 33.6502 67.4786 33.7898 67.54 33.9678C67.6013 34.1471 67.576 34.3432 67.4702 34.5008L62.3172 42.1395L38.6866 34.4467C38.3702 34.3432 38.0309 34.5165 37.9286 34.8329C37.8252 35.1481 37.9984 35.4874 38.3136 35.5909Z" fill="#738BAB"/>
<path fill-rule="evenodd" clip-rule="evenodd" d="M56.7238 42.8493L38.5001 48.7615L20.2764 42.8493L38.5001 36.9167L56.7238 42.8493Z" fill="#2D74FF"/>
<path fill-rule="evenodd" clip-rule="evenodd" d="M32.4821 34.9629C32.1584 34.5069 31.8805 34.0485 31.6471 33.5901C31.4967 33.2941 31.1346 33.1762 30.8386 33.3278C30.5426 33.4782 30.4247 33.8403 30.5751 34.1363C30.8338 34.6452 31.1418 35.1541 31.5015 35.6607C31.694 35.9314 32.0694 35.9939 32.3401 35.8026C32.6108 35.6101 32.6746 35.2336 32.4821 34.9629Z" fill="#738BAB"/>
<path fill-rule="evenodd" clip-rule="evenodd" d="M30.8131 31.0876C30.7049 30.4018 30.7 29.7316 30.7951 29.0892C30.8432 28.7607 30.6158 28.4551 30.2874 28.407C29.9589 28.3589 29.6533 28.5863 29.604 28.9147C29.4933 29.6727 29.4969 30.4643 29.6244 31.274C29.6762 31.6025 29.9842 31.8263 30.3126 31.7745C30.6399 31.7228 30.8649 31.4148 30.8131 31.0876Z" fill="#738BAB"/>
</g>
</svg>
