<svg width="513" height="728" viewBox="0 0 513 728" fill="none" xmlns="http://www.w3.org/2000/svg">
<rect width="513" height="730" fill="#F3F5F7"/>
<g opacity="0.3">
<mask id="mask0_28_614" style="mask-type:alpha" maskUnits="userSpaceOnUse" x="12" y="35" width="501" height="693">
<rect x="12" y="35" width="501" height="693" fill="#F3F5F7"/>
</mask>
<g mask="url(#mask0_28_614)">
<g opacity="0.5">
<g opacity="0.3" clip-path="url(#clip0_28_614)">
<path d="M302.628 -9.34559L269.95 4.71223C272.243 11.1673 273.676 18.0528 274.106 25.0817H309.651C309.078 13.0321 306.642 1.41294 302.628 -9.34559ZM145.541 -72.1754C135.795 -67.4416 126.765 -61.2734 118.882 -54.1011L143.964 -28.9978C148.694 -33.1578 153.997 -36.744 159.587 -39.6129L145.541 -72.1754ZM87.7796 -7.19389C84.1964 2.99085 82.0465 13.7494 81.4732 25.0817H117.019C117.449 18.4831 118.738 12.1715 120.745 6.14669L87.7796 -7.19389ZM125.475 66.6813L92.7961 80.7391C97.5259 90.4935 103.689 99.5307 110.855 107.42L135.938 82.317C131.925 77.5833 128.341 72.2758 125.475 66.6813ZM171.053 105.555L157.724 138.405C167.9 141.991 178.65 144.143 189.973 144.716V109.142C183.523 108.855 177.073 107.564 171.053 105.555ZM247.16 90.0632C242.431 94.2231 237.127 97.8093 231.538 100.678L245.584 133.384C255.33 128.65 264.36 122.482 272.243 115.31L247.16 90.0632ZM221.505 105.125C215.055 107.42 208.175 108.855 201.152 109.285V144.86C213.192 144.286 224.801 141.848 235.551 137.831L221.505 105.125ZM143.821 90.0632L118.738 115.166C127.195 122.913 136.941 129.368 147.547 134.245L160.877 101.395C154.714 98.3831 148.981 94.6535 143.821 90.0632ZM116.875 36.1271H81.3298C81.9031 48.1767 84.3397 59.7959 88.3529 70.5544L121.032 56.4966C118.882 50.0415 117.449 43.2995 116.875 36.1271ZM110.999 -46.2115C103.259 -37.7481 96.8093 -27.9937 91.9361 -17.3786L124.758 -4.03806C127.768 -10.2063 131.638 -15.9442 136.081 -21.1082L110.999 -46.2115ZM155.574 -76.4788L169.62 -43.7729C176.07 -46.068 182.949 -47.5025 189.973 -47.9328V-83.5077C177.933 -83.0773 166.467 -80.4953 155.574 -76.4788ZM243.434 -73.1795L230.104 -40.1867C236.267 -37.1743 242.001 -33.3012 247.16 -28.8544L272.243 -53.9576C263.786 -61.7037 254.04 -68.1589 243.434 -73.1795ZM201.009 -83.5077V-47.9328C207.602 -47.5025 213.908 -46.2115 219.928 -44.2032L233.258 -77.0526C223.081 -80.9256 212.332 -83.0773 201.009 -83.5077ZM280.126 -46.2115L255.043 -21.1082C259.2 -16.3745 262.783 -11.067 265.65 -5.47252L298.329 -19.5303C293.455 -29.2847 287.292 -38.1784 280.126 -46.2115ZM274.106 36.1271C273.676 42.7257 272.386 49.0373 270.38 55.0621L303.202 68.4027C306.785 58.2179 308.935 47.4594 309.508 36.1271H274.106ZM266.223 65.2469C263.213 71.4151 259.343 77.153 254.9 82.317L279.983 107.42C287.722 98.9569 294.172 89.2025 299.045 78.5874L266.223 65.2469Z" fill="#033270"/>
<path d="M320.831 136.683C381.745 67.6854 375.296 -38.035 306.498 -99L297.039 -88.3849C360.103 -32.584 365.979 64.2427 310.225 127.359C296.035 143.282 279.409 155.618 261.207 164.225L267.083 177.135C287.006 167.811 305.352 154.327 320.831 136.683Z" fill="#033270"/>
<path d="M267.083 177.135L261.206 164.225C220.071 183.591 171.77 183.877 130.348 164.082L124.185 176.849C169.62 198.509 222.221 198.222 267.083 177.135Z" fill="#284E80"/>
<path d="M85.343 151.172C97.3826 161.787 110.425 170.393 124.185 176.849L130.348 164.082C117.735 158.057 105.696 150.311 94.8027 140.557L85.343 151.172Z" fill="#3967A3"/>
<path d="M-16.9934 603.173C-77.9078 672.171 -71.458 777.892 -2.66055 838.857L6.7991 828.242C-56.2652 772.441 -62.1417 675.614 -6.38708 612.497C7.80241 596.575 24.4285 584.238 42.6311 575.631L36.7547 562.721C16.8321 572.189 -1.51392 585.673 -16.9934 603.173Z" fill="#033270"/>
<path d="M36.7546 562.865L42.6311 575.775C83.7662 556.409 132.068 556.123 173.49 575.918L179.653 563.151C134.361 541.491 81.6163 541.778 36.7546 562.865Z" fill="#284E80"/>
<path d="M218.638 588.828C206.599 578.213 193.556 569.607 179.796 563.151L173.633 575.918C186.246 581.943 198.285 589.689 209.178 599.444L218.638 588.828Z" fill="#3967A3"/>
<path d="M562.052 247.998L567.929 235.088C526.22 217.014 494.258 180.722 481.645 136.54L468.029 140.413C481.645 188.755 516.617 228.203 562.052 247.998Z" fill="#284E80"/>
<path d="M461.723 94.0797C461.723 110.146 463.873 125.638 468.029 140.27L481.645 136.397C477.775 122.913 475.769 108.711 475.912 94.0797H461.723Z" fill="#3967A3"/>
<path d="M141.814 733.7H170.05L170.05 606.319H141.814V733.7Z" fill="#03387D"/>
<path d="M141.814 660.566H170.05V606.343H141.814V660.566Z" fill="#3967A3"/>
<path d="M141.814 615.383H170.05V606.346H141.814V615.383Z" fill="#3491CF"/>
<path d="M534.676 722.521H483.795V729.693H534.676V722.521Z" fill="#03387D"/>
<path d="M534.676 710.041H483.795V717.213H534.676V710.041Z" fill="#03387D"/>
<path d="M534.676 697.561H483.795V704.734H534.676V697.561Z" fill="#03387D"/>
<path d="M534.676 685.081H483.795V692.254H534.676V685.081Z" fill="#03387D"/>
<path d="M534.676 672.601H483.795V679.774H534.676V672.601Z" fill="#03387D"/>
<path d="M44.6378 652.519V665.573C43.9211 665.573 43.0612 665.573 42.3445 665.573C41.6279 665.573 40.7679 665.573 40.0513 665.573V652.519H44.6378Z" fill="#3967A3"/>
<path d="M92.9393 700.86V705.594H79.8965C79.8965 704.877 80.0398 704.016 80.0398 703.299C80.0398 702.582 80.0398 701.721 79.8965 701.004H92.9393V700.86Z" fill="#3967A3"/>
<path d="M8.23257 665.716L17.4056 674.897C16.2589 675.901 15.1123 677.048 14.109 678.196L4.93604 669.015L8.23257 665.716Z" fill="#3967A3"/>
<path d="M79.7532 669.015L70.5802 678.196C69.5769 677.048 68.4303 675.901 67.2837 674.897L76.4567 665.716L79.7532 669.015Z" fill="#3967A3"/>
<path d="M63.557 657.253L58.6839 669.302C57.9672 669.015 57.2506 668.585 56.534 668.298C55.8173 668.011 55.1007 667.724 54.384 667.437L59.2572 655.388L63.557 657.253Z" fill="#3967A3"/>
<path d="M90.0727 720.226L88.3528 724.529L76.3132 719.652C76.5999 718.935 77.0299 718.218 77.3165 717.5C77.6032 716.783 77.8898 716.066 78.1765 715.349L90.0727 720.226Z" fill="#3967A3"/>
<path d="M24.8584 655.675L29.8749 667.724C28.4416 668.298 27.0084 668.872 25.5751 669.446L20.5586 657.396L24.8584 655.675Z" fill="#3967A3"/>
<path d="M89.7861 685.799L77.7466 690.819C77.1732 689.385 76.5999 687.95 75.8833 686.516L87.9229 681.495L89.7861 685.799Z" fill="#3967A3"/>
<path d="M462.009 62.6647C462.726 62.6647 463.586 62.6647 464.302 62.6647V75.7184H459.716V62.6647C460.432 62.6647 461.149 62.6647 462.009 62.6647Z" fill="#3967A3"/>
<path d="M499.418 59.222L496.121 62.5213L486.948 53.3407C488.095 52.3365 489.241 51.189 490.245 50.0414L499.418 59.222Z" fill="#3967A3"/>
<path d="M437.07 53.3407L427.897 62.5213L424.601 59.222L433.774 50.0414C434.777 51.189 435.923 52.3365 437.07 53.3407Z" fill="#3967A3"/>
<path d="M447.676 59.9392C448.393 60.2261 449.11 60.513 449.826 60.7999L444.953 72.8494L440.653 71.128L445.526 59.0785C446.243 59.3654 446.96 59.6523 447.676 59.9392Z" fill="#3967A3"/>
<path d="M509.594 42.1517L507.874 46.4551L495.835 41.5779C496.121 40.8607 496.551 40.1435 496.838 39.4262C497.125 38.709 497.411 37.9918 497.698 37.2745L509.594 42.1517Z" fill="#3967A3"/>
<path d="M483.652 70.8412L479.352 72.706L474.335 60.6564C475.769 60.2261 477.202 59.5088 478.635 58.9351L483.652 70.8412Z" fill="#3967A3"/>
<path d="M428.327 41.7214L416.288 46.742L414.568 42.4386L426.607 37.418C427.037 38.9959 427.61 40.4304 428.327 41.7214Z" fill="#3967A3"/>
<path d="M29.4449 489.993L37.328 499.604H46.2143L29.4449 478.948L12.6755 499.604H21.7052L29.4449 489.993Z" fill="#02FBFF"/>
<path d="M29.4449 508.355L37.328 517.966H46.2143L29.4449 497.453L12.6755 517.966H21.7052L29.4449 508.355Z" fill="#02FBFF"/>
<path d="M29.4449 526.716L37.328 536.327H46.2143L29.4449 515.814L12.6755 536.327H21.7052L29.4449 526.716Z" fill="#02FBFF"/>
<path d="M248.88 601.452L261.063 616.514H274.966L248.88 584.381L222.795 616.514H236.698L248.88 601.452Z" fill="#0254C2"/>
<path d="M248.88 630.141L261.063 645.203H274.966L248.88 613.071L222.795 645.203H236.698L248.88 630.141Z" fill="#0254C2"/>
<path d="M248.88 658.831L261.063 673.892H274.966L248.88 641.76L222.795 673.892H236.698L248.88 658.831Z" fill="#0254C2"/>
<path d="M167.757 59.9393L173.633 45.4512H161.88L167.757 59.9393Z" fill="#02FBFF"/>
<path d="M167.757 80.7391L173.633 66.251H161.88L167.757 80.7391Z" fill="#02FBFF"/>
<path d="M63.1272 113.015L69.0036 98.5265H57.2507L63.1272 113.015Z" fill="#02FBFF"/>
<path d="M63.1272 133.958L69.0036 119.326H57.2507L63.1272 133.958Z" fill="#02FBFF"/>
<path d="M63.1272 154.758L69.0036 140.27H57.2507L63.1272 154.758Z" fill="#02FBFF"/>
<path d="M70.4368 628.85L64.5603 643.482H76.4565L70.4368 628.85Z" fill="#02FBFF"/>
<path d="M70.4368 608.05L64.5603 622.538H76.4565L70.4368 608.05Z" fill="#02FBFF"/>
<path d="M70.4368 587.25L64.5603 601.739H76.4565L70.4368 587.25Z" fill="#02FBFF"/>
<path d="M31.0217 182.3L15.1123 201.808H46.9311L31.0217 182.3Z" fill="#02FBFF"/>
<path d="M31.0217 212.71L15.1123 232.219H46.9311L31.0217 212.71Z" fill="#02FBFF"/>
<path d="M402.241 590.98L381.459 616.514H423.024L402.241 590.98Z" fill="#02FBFF"/>
<path d="M402.241 630.858L381.459 656.392H423.024L402.241 630.858Z" fill="#02FBFF"/>
<path d="M-42.6489 638.318V661.269C-42.6489 672.315 -33.7626 681.208 -22.7263 681.208H272.099C283.136 681.208 292.022 690.102 292.022 701.147V778.322" stroke="#0254C2" stroke-miterlimit="10" stroke-linecap="round" stroke-linejoin="round"/>
<path d="M28.8718 625.981L28.7285 643.912C28.7285 651.802 35.035 658.257 43.0613 658.257H135.651C143.534 658.257 149.984 664.712 149.984 672.602V755.37" stroke="#02FBFF" stroke-miterlimit="10" stroke-linecap="round" stroke-linejoin="round"/>
<path d="M31.0217 116.171L29.1584 577.353" stroke="#02FBFF" stroke-miterlimit="10" stroke-linecap="round" stroke-linejoin="round"/>
<path d="M31.595 -32.0103L31.165 67.542" stroke="#02FBFF" stroke-miterlimit="10" stroke-linecap="round" stroke-linejoin="round"/>
<path d="M-8.82362 -25.5552L-11.6902 539.339C-11.6902 551.532 -1.94388 561.43 10.239 561.43H87.4928C99.6757 561.43 109.422 571.328 109.422 583.377V761.825" stroke="#02FBFF" stroke-miterlimit="10" stroke-linecap="round" stroke-linejoin="round"/>
<path d="M520.344 98.3831L522.494 539.913C522.494 551.819 512.891 561.43 501.138 561.43H422.881C411.128 561.43 401.525 571.041 401.525 582.804V761.825" stroke="#02FBFF" stroke-miterlimit="10" stroke-linecap="round" stroke-linejoin="round"/>
<path d="M575.955 -32.0103L578.821 643.912C578.821 651.802 572.515 658.257 564.489 658.257H471.899C464.016 658.257 457.566 664.712 457.566 672.601V755.37" stroke="#0254C2" stroke-miterlimit="10" stroke-linecap="round" stroke-linejoin="round"/>
<path d="M37.3281 110.289C37.3281 113.588 34.6049 116.314 31.3084 116.314C28.0118 116.314 25.2886 113.588 25.2886 110.289C25.2886 106.99 28.0118 104.264 31.3084 104.264C34.6049 104.264 37.3281 106.99 37.3281 110.289Z" stroke="#02FBFF" stroke-miterlimit="10" stroke-linecap="round" stroke-linejoin="round"/>
<path d="M37.3281 91.928C37.3281 95.2273 34.6049 97.9528 31.3084 97.9528C28.0118 97.9528 25.2886 95.2273 25.2886 91.928C25.2886 88.6287 28.0118 85.9032 31.3084 85.9032C34.6049 85.9032 37.3281 88.6287 37.3281 91.928Z" stroke="#02FBFF" stroke-miterlimit="10" stroke-linecap="round" stroke-linejoin="round"/>
<path d="M37.3281 73.5668C37.3281 76.8661 34.6049 79.5915 31.3084 79.5915C28.0118 79.5915 25.2886 76.8661 25.2886 73.5668C25.2886 70.2675 28.0118 67.542 31.3084 67.542C34.6049 67.542 37.3281 70.2675 37.3281 73.5668Z" stroke="#02FBFF" stroke-miterlimit="10" stroke-linecap="round" stroke-linejoin="round"/>
<path d="M31.3083 79.4481V85.9032" stroke="#02FBFF" stroke-miterlimit="10" stroke-linecap="round" stroke-linejoin="round"/>
<path d="M31.3083 104.264V98.8135" stroke="#02FBFF" stroke-miterlimit="10" stroke-linecap="round" stroke-linejoin="round"/>
<path d="M35.1782 619.956C35.1782 623.256 32.455 625.981 29.1585 625.981C25.8619 625.981 23.1387 623.256 23.1387 619.956C23.1387 616.657 25.8619 613.932 29.1585 613.932C32.455 613.932 35.1782 616.657 35.1782 619.956Z" stroke="#02FBFF" stroke-miterlimit="10" stroke-linecap="round" stroke-linejoin="round"/>
<path d="M35.1782 601.595C35.1782 604.894 32.455 607.62 29.1585 607.62C25.8619 607.62 23.1387 604.894 23.1387 601.595C23.1387 598.296 25.8619 595.57 29.1585 595.57C32.455 595.57 35.1782 598.296 35.1782 601.595Z" stroke="#02FBFF" stroke-miterlimit="10" stroke-linecap="round" stroke-linejoin="round"/>
<path d="M35.1782 583.234C35.1782 586.533 32.455 589.259 29.1585 589.259C25.8619 589.259 23.1387 586.533 23.1387 583.234C23.1387 579.935 25.8619 577.209 29.1585 577.209C32.455 577.209 35.1782 579.935 35.1782 583.234Z" stroke="#02FBFF" stroke-miterlimit="10" stroke-linecap="round" stroke-linejoin="round"/>
<path d="M29.3018 589.259V595.714" stroke="#02FBFF" stroke-miterlimit="10" stroke-linecap="round" stroke-linejoin="round"/>
<path d="M29.3018 614.075V608.624" stroke="#02FBFF" stroke-miterlimit="10" stroke-linecap="round" stroke-linejoin="round"/>
<path d="M435.637 696.987L440.653 703.156H446.386L435.637 689.958L424.887 703.156H430.62L435.637 696.987Z" fill="#3491CF"/>
<path d="M435.637 708.894L440.653 715.062H446.386L435.637 701.865L424.887 715.062H430.62L435.637 708.894Z" fill="#3491CF"/>
<path d="M435.637 720.656L440.653 726.824H446.386L435.637 713.627L424.887 726.824H430.62L435.637 720.656Z" fill="#3491CF"/>
<path d="M366.983 722.521H316.101V729.693H366.983V722.521Z" fill="#3967A3"/>
<path d="M366.983 710.041H316.101V717.213H366.983V710.041Z" fill="#3967A3"/>
<path d="M366.983 697.561H316.101V704.734H366.983V697.561Z" fill="#3967A3"/>
<path d="M366.983 685.081H316.101V692.254H366.983V685.081Z" fill="#3967A3"/>
<path d="M366.983 672.601H316.101V679.774H366.983V672.601Z" fill="#3967A3"/>
<path d="M366.983 660.122H316.101V667.294H366.983V660.122Z" fill="#3967A3"/>
<path d="M366.983 647.642H316.101V654.814H366.983V647.642Z" fill="#3967A3"/>
<path d="M366.983 635.162H316.101V642.334H366.983V635.162Z" fill="#3967A3"/>
<path d="M366.983 622.682H316.101V629.854H366.983V622.682Z" fill="#3967A3"/>
<path d="M366.983 610.058H316.101V617.231H366.983V610.058Z" fill="#3967A3"/>
<path d="M366.983 597.579H316.101V604.751H366.983V597.579Z" fill="#3967A3"/>
<path d="M366.983 585.099H316.101V592.271H366.983V585.099Z" fill="#3967A3"/>
<path d="M366.983 572.619H316.101V579.791H366.983V572.619Z" fill="#3967A3"/>
<path d="M366.983 560.139H316.101V567.311H366.983V560.139Z" fill="#3967A3"/>
<path d="M366.983 547.659H316.101V554.831H366.983V547.659Z" fill="#3967A3"/>
<path d="M366.983 535.179H316.101V542.352H366.983V535.179Z" fill="#3967A3"/>
<path d="M280.842 722.521H229.961V729.693H280.842V722.521Z" fill="#3967A3"/>
<path d="M280.842 710.041H229.961V717.213H280.842V710.041Z" fill="#3967A3"/>
<path d="M280.842 697.561H229.961V704.734H280.842V697.561Z" fill="#3967A3"/>
<path d="M105.122 82.8909H54.2407V90.0632H105.122V82.8909Z" fill="#3967A3"/>
<path d="M105.122 70.4109H54.2407V77.5832H105.122V70.4109Z" fill="#3967A3"/>
<path d="M105.122 57.931H54.2407V65.1034H105.122V57.931Z" fill="#3967A3"/>
<path d="M105.122 45.4512H54.2407V52.6235H105.122V45.4512Z" fill="#3967A3"/>
<path d="M105.122 32.9712H54.2407V40.1435H105.122V32.9712Z" fill="#3967A3"/>
<path d="M181.373 32.9712H130.491V40.1435H181.373V32.9712Z" fill="#3967A3"/>
<path d="M475.625 658.257V594.423" stroke="#0254C2" stroke-miterlimit="10" stroke-linecap="round" stroke-linejoin="round"/>
<path d="M475.625 594.423L485.515 604.464" stroke="#0254C2" stroke-miterlimit="10" stroke-linecap="round" stroke-linejoin="round"/>
<path d="M475.625 594.423L465.592 604.464" stroke="#0254C2" stroke-miterlimit="10" stroke-linecap="round" stroke-linejoin="round"/>
<path d="M475.625 604.321L485.515 614.362" stroke="#0254C2" stroke-miterlimit="10" stroke-linecap="round" stroke-linejoin="round"/>
<path d="M475.625 604.321L465.592 614.362" stroke="#0254C2" stroke-miterlimit="10" stroke-linecap="round" stroke-linejoin="round"/>
<path d="M239.134 16.3314H210.898V68.6896H239.134V16.3314Z" fill="#034191"/>
<path d="M239.134 45.3077H210.898V68.833H239.134V45.3077Z" fill="#3967A3"/>
<path d="M239.134 59.6525H210.898V68.6896H239.134V59.6525Z" fill="#3491CF"/>
<path d="M192.396 733.671H220.632V688.485H192.396V733.671Z" fill="#03387D"/>
<path d="M192.396 711.972H220.632V688.447H192.396V711.972Z" fill="#3967A3"/>
<path d="M192.396 697.52H220.632V688.483H192.396V697.52Z" fill="#3491CF"/>
<path d="M14.3955 16.3314H-13.8401V143.712H14.3955V16.3314Z" fill="#03387D"/>
<path d="M14.3955 89.4894H-13.8401V143.712H14.3955V89.4894Z" fill="#3967A3"/>
<path d="M14.3955 134.675H-13.8401V143.712H14.3955V134.675Z" fill="#3491CF"/>
<path d="M31.5949 50.7587C33.653 50.7587 35.3215 49.0889 35.3215 47.0291C35.3215 44.9693 33.653 43.2994 31.5949 43.2994C29.5368 43.2994 27.8684 44.9693 27.8684 47.0291C27.8684 49.0889 29.5368 50.7587 31.5949 50.7587Z" fill="#02FBFF"/>
<path d="M405.108 679.774C405.108 681.782 403.388 683.503 401.381 683.503C399.375 683.503 397.655 681.782 397.655 679.774C397.655 677.766 399.375 676.044 401.381 676.044C403.388 676.044 405.108 677.766 405.108 679.774Z" fill="#02FBFF"/>
<path d="M113.149 703.156C113.149 705.164 111.429 706.885 109.422 706.885C107.416 706.885 105.696 705.164 105.696 703.156C105.696 701.147 107.416 699.426 109.422 699.426C111.429 699.426 113.149 701.147 113.149 703.156Z" fill="#02FBFF"/>
<path d="M113.149 635.162C113.149 637.17 111.429 638.891 109.422 638.891C107.416 638.891 105.696 637.17 105.696 635.162C105.696 633.153 107.416 631.432 109.422 631.432C111.429 631.432 113.149 633.01 113.149 635.162Z" fill="#02FBFF"/>
<path d="M31.0217 171.111C33.0798 171.111 34.7482 169.441 34.7482 167.381C34.7482 165.321 33.0798 163.651 31.0217 163.651C28.9636 163.651 27.2952 165.321 27.2952 167.381C27.2952 169.441 28.9636 171.111 31.0217 171.111Z" fill="#02FBFF"/>
</g>
</g>
</g>
</g>
<defs>
<clipPath id="clip0_28_614">
<rect width="901.39" height="938" fill="white" transform="translate(-106 -99)"/>
</clipPath>
</defs>
</svg>
